# AST/ASF file generated using VICON BodyLanguage
# -----------------------------------------------
:version 1.10
:name VICON
:units
  mass 1.0
  length 0.45
  angle deg
:documentation
   .ast/.asf automatically generated from VICON data using
   VICON BodyBuilder and BodyLanguage model FoxedUp or BRILLIANT.MOD
:root
   order TX TY TZ RX RY RZ
   axis XYZ
   position 0 0 0  
   orientation 0 0 0 
:bonedata
  begin
     id 1 
     name lhipjoint
     direction 0.521452 -0.77106 0.36545 
     length 2.0933 
     axis 0 0 0  XYZ
  end
  begin
     id 2 
     name lfemur
     direction 0.34202 -0.939693 0  
     length 6.83441  
     axis 0 0 20  XYZ
    dof rx ry rz
    limits (-160.0 20.0)
           (-70.0 70.0)
           (-60.0 70.0)
  end
  begin
     id 3 
     name ltibia
     direction 0.34202 -0.939693 0   
     length 7.28749   
     axis 0 0 20   XYZ
    dof rx
    limits (-10.0 170.0)
  end
  begin
     id 4 
     name lfoot
     direction 0.100608 -0.276418 0.955757   
     length 1.52195   
     axis -90 7.62852e-016 20   XYZ
    dof rx rz
    limits (-45.0 90.0)
           (-70.0 20.0)
  end
  begin
     id 5 
     name ltoes
     direction 1.53558e-011 -4.21907e-011 1   
     length 0.770459   
     axis -90 7.62852e-016 20   XYZ
    dof rx
    limits (-90.0 20.0)
  end
  begin
     id 6 
     name rhipjoint
     direction -0.488071 -0.788702 0.373812   
     length 2.04648  
     axis 0 0 0  XYZ 
  end
  begin
     id 7 
     name rfemur
     direction -0.34202 -0.939693 0   
     length 6.92583   
     axis 0 0 -20   XYZ
    dof rx ry rz
    limits (-160.0 20.0)
           (-70.0 70.0)
           (-70.0 60.0)
  end
  begin
     id 8 
     name rtibia
     direction -0.34202 -0.939693 0   
     length 7.41043   
     axis 0 0 -20   XYZ
    dof rx
    limits (-10.0 170.0)
 end
 begin
     id 9 
     name rfoot
     direction -0.0784433 -0.215521 0.973343   
     length 1.67708  
     axis -90 -7.62852e-016 -20   XYZ
    dof rx rz
    limits (-45.0 90.0)
           (-20.0 70.0)
  end
  begin
     id 10 
     name rtoes
     direction -1.53551e-011 -4.21842e-011 1   
     length 0.849787   
     axis -90 -7.62852e-016 -20   XYZ
    dof rx
    limits (-90.0 20.0)
  end
  begin
     id 11 
     name lowerback
     direction -0.0122332 0.997575 -0.0685192   
     length 1.98724   
     axis 0 0 0   XYZ
    dof rx ry rz
    limits (-20.0 45.0)
           (-30.0 30.0)
           (-30.0 30.0)
  end
  begin
     id 12 
     name upperback
     direction 0.0182347 0.999724 -0.0148421   
     length 1.99029   
     axis 0 0 0   XYZ
    dof rx ry rz
    limits (-20.0 45.0)
           (-30.0 30.0)
           (-30.0 30.0)
  end
  begin
     id 13 
     name thorax
     direction 0.0242908 0.99956 0.0170184   
     length 1.99573   
     axis 0 0 0   XYZ
    dof rx ry rz
    limits (-20.0 45.0)
           (-30.0 30.0)
           (-30.0 30.0)
  end
  begin
     id 14 
     name lowerneck
     direction 0.0654488 0.985533 0.156338   
     length 1.4285   
     axis 0 0 0   XYZ
    dof rx ry rz
    limits (-20.0 45.0)
           (-30.0 30.0)
           (-30.0 30.0)
  end
  begin
     id 15 
     name upperneck
     direction -0.02953 0.998556 -0.0448842   
     length 1.44709   
     axis 0 0 0   XYZ
    dof rx ry rz
    limits (-20.0 45.0)
           (-30.0 30.0)
           (-30.0 30.0)
  end
  begin
     id 16
     name head
     direction -0.0155588 0.999386 -0.0314063  
     length 1.44689  
     axis 0 0 0   XYZ
    dof rx ry rz
    limits (-20.0 45.0)
           (-30.0 30.0)
           (-30.0 30.0)
  end
  begin
     id 17 
     name lclavicle
     direction 0.968229 0.236071 -0.0824755  
     length 3.60593  
     axis 0 0 0   XYZ
    dof ry rz
    limits (-20.0 10.0)
           (0.0 20.0)
  end
  begin
     id 18 
     name lhumerus
     direction 1 -4.48968e-011 7.8138e-029   
     length 5.06035   
     axis 180 -30 -90   XYZ
    dof rx ry rz
    limits (-60.0 90.0)
           (-90.0 90.0)
           (-90.0 90.0)
  end
  begin
     id 19
     name lradius
     direction 1 -4.48967e-011 9.02887e-028   
     length 3.1478   
     axis 180 -30 -90   XYZ
    dof rx
    limits (-10.0 170.0)
  end
  begin
     id 20
     name lwrist
     direction 1 -4.48961e-011 7.20928e-028   
     length 1.5739   
     axis -5.52449e-016 90 90   XYZ
    dof ry
    limits (-180.0 0.0)
 end
  begin
     id 21 
     name lhand
     direction 1 -4.48972e-011 1.44186e-027   
     length 0.606747   
     axis -9.20027e-016 90 90   XYZ
    dof rx rz
    limits (-90.0 90.0)
           (-45.0 45.0)
  end
  begin
     id 22 
     name lfingers
     direction 1 -4.48943e-011 2.88371e-027   
     length 0.489175   
     axis -1.84005e-015 90 90   XYZ
    dof rx
    limits (0.0 90.0)
  end
  begin
     id 23
     name lthumb
     direction 0.707107 -6.34917e-011 0.707107   
     length 0.70236   
     axis -90 45 2.85299e-015   XYZ
    dof rx rz
    limits (-45.0 45.0)
           (-45.0 45.0)
  end
  begin
     id 24 
     name rclavicle
     direction -0.978165 0.207816 0.0022268   
     length 3.35425  
     axis 0 0 0   XYZ 
    dof ry rz
    limits (-10.0 20.0)
           (-20.0 0.0)
  end
  begin
     id 25 
     name rhumerus
     direction -1 -4.48964e-011 -4.02159e-027  
     length 5.12273   
     axis 180 30 90   XYZ
    dof rx ry rz
    limits (-90.0 60.0)
           (-90.0 90.0)
           (-90.0 90.0)
  end
  begin
     id 26 
     name rradius
     direction -1 -4.48966e-011 1.62746e-027   
     length 3.422   
     axis 180 30 90   XYZ
    dof rx
    limits (-10.0 170.0)
  end
  begin
     id 27 
     name rwrist
     direction -1 -4.4896e-011 7.20928e-028   
     length 1.711   
     axis -5.52449e-016 -90 -90   XYZ
    dof ry
    limits (-180.0 0.0)
  end
  begin
     id 28
     name rhand
     direction -1 -4.48979e-011 1.44186e-027   
     length 0.704599   
     axis -9.20027e-016 -90 -90   XYZ
    dof rx rz
    limits (-90.0 90.0)
           (-45.0 45.0)
  end
  begin
     id 29
     name rfingers
     direction -1 -4.48962e-011 2.88371e-027   
     length 0.568066   
     axis -1.84005e-015 -90 -90   XYZ
    dof rx
    limits (0.0 90.0)
  end
  begin
     id 30
     name rthumb
     direction -0.707107 -6.34949e-011 0.707107   
     length 0.815633   
     axis -90 -45 -2.85299e-015   XYZ
    dof rx rz
    limits (-45.0 45.0)
           (-45.0 45.0)
  end
:hierarchy
  begin
    root lhipjoint rhipjoint lowerback
    lhipjoint lfemur
    lfemur ltibia
    ltibia lfoot
    lfoot ltoes
    rhipjoint rfemur
    rfemur rtibia
    rtibia rfoot
    rfoot rtoes
    lowerback upperback
    upperback thorax
    thorax lowerneck lclavicle rclavicle
    lowerneck upperneck
    upperneck head
    lclavicle lhumerus
    lhumerus lradius
    lradius lwrist
    lwrist lhand lthumb
    lhand lfingers
    rclavicle rhumerus
    rhumerus rradius
    rradius rwrist
    rwrist rhand rthumb
    rhand rfingers
  end

#!OML:ASF E:\id_vita\Project 1\Capture day 1\Session 1\Male1.ASF
:FULLY-SPECIFIED
:DEGREES
227
root -7.62454 27.2281 -0.89812 16.0064 82.9993 11.9327
lowerback -2.70666 -0.359965 -5.1207
upperback 0.564444 -0.258426 -1.23459
thorax 2.11871 -0.177152 1.58817
lowerneck -10.3458 1.31918 4.2312
upperneck 19.058 1.02702 1.23192
head 7.59464 0.998565 -0.189993
rclavicle 7.05686e-015 -4.37326e-015
rhumerus -29.2844 -8.99831 -84.1694
rradius 22.5354
rwrist 3.7533
rhand -19.0759 44.4276
rfingers 7.12502
rthumb 7.23186 14.5712
lclavicle 7.05686e-015 -4.37326e-015
lhumerus -22.9566 18.1161 77.9624
lradius 13.6532
lwrist -13.1335
lhand -12.9652 43.0001
lfingers 7.12502
lthumb 13.1268 72.567
rfemur -14.0889 5.68777 12.6938
rtibia 35.3356
rfoot -18.1114 -9.03323
rtoes -11.4459
lfemur -9.22013 5.97812 -22.5834
ltibia 27.5469
lfoot -25.2647 3.77559
ltoes 0.626684
228
root -7.61567 27.228 -0.917863 15.532 82.5582 11.5335
lowerback -2.91604 -0.346559 -4.97303
upperback 0.789894 -0.215147 -1.45418
thorax 2.46486 -0.161638 1.27986
lowerneck -10.3122 1.41949 4.51159
upperneck 19.1899 1.10424 1.30854
head 7.63648 1.06708 -0.203095
rclavicle -2.5842e-014 -1.35174e-014
rhumerus -28.8848 -9.26856 -84.4525
rradius 22.4468
rwrist 4.14297
rhand -18.5565 44.9298
rfingers 7.12502
rthumb 7.73324 15.0912
lclavicle -2.5842e-014 -1.35174e-014
lhumerus -22.5833 18.4502 77.6329
lradius 13.4615
lwrist -13.3818
lhand -12.7763 43.4072
lfingers 7.12502
lthumb 13.3089 72.9622
rfemur -14.7002 5.69973 12.4767
rtibia 36.4337
rfoot -17.9135 -8.17644
rtoes -11.2257
lfemur -9.02453 5.96797 -22.7531
ltibia 27.4614
lfoot -25.328 4.12686
ltoes 0.86245
229
root -7.60875 27.2242 -0.939548 14.5206 81.9494 10.6244
lowerback -2.82437 -0.297057 -4.92314
upperback 0.674899 -0.159012 -1.53931
thorax 2.29074 -0.126659 1.1681
lowerneck -9.58804 1.49883 4.71606
upperneck 19.3232 1.24167 1.2903
head 7.55514 1.15358 -0.234086
rclavicle 8.54774e-015 1.27222e-014
rhumerus -29.1982 -8.77565 -84.6719
rradius 22.6394
rwrist 3.98022
rhand -18.2112 45.5064
rfingers 7.12502
rthumb 8.06654 15.6804
lclavicle 8.54774e-015 1.27222e-014
lhumerus -22.9154 19.0882 77.1693
lradius 13.2943
lwrist -13.8416
lhand -12.7643 43.4483
lfingers 7.12502
lthumb 13.3203 73.0026
rfemur -15.3665 5.8977 12.2658
rtibia 37.5826
rfoot -17.7161 -7.16569
rtoes -10.3454
lfemur -8.7939 6.11766 -22.9004
ltibia 27.3557
lfoot -25.3913 4.57231
ltoes 1.06359
230
root -7.59759 27.2227 -0.955391 14.5129 81.6516 10.614
lowerback -2.68807 -0.294129 -5.03696
upperback 0.571155 -0.161179 -1.61966
thorax 2.10755 -0.122688 1.14981
lowerneck -9.21353 1.64764 4.80848
upperneck 19.4022 1.44962 1.36554
head 7.51866 1.27107 -0.207682
rclavicle 7.95139e-016 1.43125e-014
rhumerus -29.4713 -8.35196 -84.8886
rradius 22.9689
rwrist 3.71179
rhand -18.3815 45.6406
rfingers 7.12502
rthumb 7.90211 15.8083
lclavicle 7.95139e-016 1.43125e-014
lhumerus -23.033 19.1706 76.954
lradius 13.1392
lwrist -13.9283
lhand -12.9842 43.2982
lfingers 7.12502
lthumb 13.1084 72.8663
rfemur -16.1035 6.00649 12.0583
rtibia 38.8007
rfoot -17.2615 -6.47432
rtoes -10.2264
lfemur -8.69382 6.12015 -23.0593
ltibia 27.2453
lfoot -25.3929 4.81505
ltoes 1.42068
231
root -7.58357 27.2252 -0.97033 14.0352 81.3995 10.1021
lowerback -2.5603 -0.437764 -5.22205
upperback 0.333715 -0.36879 -1.50004
thorax 1.80492 -0.219392 1.36878
lowerneck -8.89908 1.81754 4.8309
upperneck 20.1476 1.72982 1.31016
head 7.71347 1.42705 -0.200513
rclavicle -1.2921e-015 -5.56597e-015
rhumerus -29.9202 -7.62814 -84.9127
rradius 23.26
rwrist 3.72324
rhand -18.3207 45.6604
rfingers 7.12502
rthumb 7.96082 15.8303
lclavicle -1.2921e-015 -5.56597e-015
lhumerus -23.6829 19.6744 76.6755
lradius 13.161
lwrist -14.1214
lhand -13.0853 43.8015
lfingers 7.12502
lthumb 13.011 73.3758
rfemur -16.9114 6.0844 11.9639
rtibia 40.0691
rfoot -16.7827 -5.71071
rtoes -10.0252
lfemur -8.5957 5.95927 -23.1349
ltibia 27.1116
lfoot -25.4059 5.10186
ltoes 2.05186
232
root -7.56962 27.2278 -0.987961 12.9804 80.9876 9.12319
lowerback -2.58556 -0.536831 -5.20536
upperback 0.333591 -0.50167 -1.44149
thorax 1.82759 -0.286738 1.41384
lowerneck -8.33877 2.015 4.86447
upperneck 20.3199 2.07371 1.17522
head 7.6771 1.58876 -0.222958
rclavicle 2.68359e-015 -3.18055e-015
rhumerus -29.9179 -7.23678 -84.9663
rradius 23.3427
rwrist 3.99943
rhand -18.1543 45.7918
rfingers 7.12502
rthumb 8.12144 15.9679
lclavicle 2.68359e-015 -3.18055e-015
lhumerus -24.0047 20.6596 76.2452
lradius 13.083
lwrist -14.822
lhand -13.0666 43.8722
lfingers 7.12502
lthumb 13.029 73.4453
rfemur -17.6846 6.2422 11.9021
rtibia 41.3429
rfoot -16.302 -4.66934
rtoes -9.38065
lfemur -8.31141 5.85828 -23.1779
ltibia 26.8945
lfoot -25.4584 5.55118
ltoes 2.26098
233
root -7.55322 27.2322 -1.00709 12.1989 80.6005 8.47057
lowerback -2.6208 -0.551292 -5.09351
upperback 0.49372 -0.514016 -1.50139
thorax 2.01161 -0.297647 1.28792
lowerneck -8.35728 2.15899 5.06204
upperneck 20.2764 2.26131 1.05034
head 7.67444 1.67874 -0.27969
rclavicle -3.95085e-014 1.59028e-014
rhumerus -29.7326 -7.05476 -85.1169
rradius 23.4793
rwrist 4.02702
rhand -18.6719 45.8141
rfingers 7.12502
rthumb 7.62183 15.9714
lclavicle -3.95085e-014 1.59028e-014
lhumerus -23.8867 21.8682 75.7581
lradius 12.7663
lwrist -16.08
lhand -13.0116 42.8166
lfingers 7.12502
lthumb 13.082 72.3864
rfemur -18.3834 6.33975 11.7948
rtibia 42.581
rfoot -15.7618 -3.66806
rtoes -9.48608
lfemur -7.94571 5.84902 -23.2492
ltibia 26.587
lfoot -25.4295 5.85723
ltoes 2.08659
234
root -7.53312 27.2402 -1.0257 11.3908 80.3814 7.76269
lowerback -2.68246 -0.447609 -4.78132
upperback 0.936976 -0.356708 -1.71702
thorax 2.49044 -0.228331 0.895875
lowerneck -9.76827 2.19794 5.3166
upperneck 21.0883 2.14119 1.16256
head 8.20304 1.66879 -0.272541
rclavicle -2.39039e-014 2.38542e-014
rhumerus -29.1041 -7.43091 -85.3888
rradius 23.751
rwrist 3.90599
rhand -20.2752 45.0724
rfingers 7.12502
rthumb 6.07414 15.1795
lclavicle -2.39039e-014 2.38542e-014
lhumerus -22.8544 22.7056 75.5979
lradius 12.3044
lwrist -17.4374
lhand -12.9821 41.8683
lfingers 7.12502
lthumb 13.1105 71.4362
rfemur -19.0433 6.36417 11.761
rtibia 43.7833
rfoot -15.236 -2.68076
rtoes -9.00926
lfemur -7.58037 5.8962 -23.2355
ltibia 26.244
lfoot -25.3644 5.87374
ltoes 2.00369
235
root -7.51129 27.2502 -1.04059 10.8171 80.1869 7.22379
lowerback -2.59145 -0.475467 -4.65967
upperback 0.913363 -0.401131 -1.82934
thorax 2.4152 -0.245386 0.711196
lowerneck -9.80666 2.3031 5.49722
upperneck 21.4481 2.23894 1.25733
head 8.33652 1.75086 -0.256875
rclavicle -1.47101e-014 -3.18055e-015
rhumerus -29.3345 -7.35848 -85.6087
rradius 24.0809
rwrist 3.61086
rhand -18.7027 46.164
rfingers 7.12502
rthumb 7.59209 16.3203
lclavicle -1.47101e-014 -3.18055e-015
lhumerus -22.8793 22.7208 75.3467
lradius 12.2289
lwrist -17.6346
lhand -13.0667 42.4446
lfingers 7.12502
lthumb 13.0289 72.0177
rfemur -19.755 6.48923 11.7246
rtibia 44.9435
rfoot -14.5603 -1.56077
rtoes -6.81981
lfemur -7.21826 5.94506 -23.22
ltibia 25.8293
lfoot -25.3663 5.90723
ltoes 2.12156
236
root -7.49576 27.2572 -1.0593 9.87311 79.2322 6.18619
lowerback -2.47731 -0.26922 -4.58793
upperback 0.778399 -0.139622 -1.91043
thorax 2.19892 -0.107616 0.601263
lowerneck -9.78172 2.40698 5.79063
upperneck 21.7339 2.34947 1.20349
head 8.43771 1.83127 -0.309507
rclavicle -2.5842e-015 2.3059e-014
rhumerus -29.5422 -7.22919 -85.7453
rradius 24.286
rwrist 3.20433
rhand -18.5915 45.7817
rfingers 7.12502
rthumb 7.69942 15.9419
lclavicle -2.5842e-015 2.3059e-014
lhumerus -22.9533 22.4276 75.3013
lradius 12.2819
lwrist -17.3293
lhand -13.0618 43.6364
lfingers 7.12502
lthumb 13.0337 73.2092
rfemur -20.8525 7.08559 11.5725
rtibia 46.1101
rfoot -13.6173 -0.231767
rtoes -4.35296
lfemur -6.96232 5.91298 -23.3692
ltibia 25.3733
lfoot -25.388 6.70435
ltoes 3.20745
